<svg xmlns="http://www.w3.org/2000/svg" xmlns:xlink="http://www.w3.org/1999/xlink" preserveAspectRatio="xMidYMid" width="3746" height="734" viewBox="0 0 3746 734">
  <defs>
    <style>
      .cls-1, .cls-2 {
        fill: #342166;
      }

      .cls-1 {
        filter: url(#drop-shadow-1);
      }

      .cls-1, .cls-2, .cls-3 {
        fill-rule: evenodd;
      }

      .cls-3 {
        fill: #fff;
      }
    </style>

    <filter id="drop-shadow-1" filterUnits="userSpaceOnUse">
      <feOffset in="SourceAlpha"/>
      <feGaussianBlur stdDeviation="4.243" result="dropBlur"/>
      <feFlood flood-color="#342166"/>
      <feComposite operator="in" in2="dropBlur" result="dropShadowComp"/>
      <feComposite in="SourceGraphic" result="shadowed"/>
    </filter>
  </defs>
  <g>
    <g>
      <path d="M1725.944,734.512 L1483.669,618.834 C1483.669,618.834 1447.273,593.116 1394.885,623.341 C1327.196,651.531 1139.067,734.512 1139.067,734.512 L1122.514,722.494 L1245.909,177.152 C1245.909,177.152 1278.439,153.958 1349.741,160.627 C1390.440,106.257 1421.890,94.266 1452.068,85.511 C1475.106,93.032 1527.185,145.299 1536.338,177.152 C1584.253,168.313 1623.662,170.070 1640.170,198.184 C1656.677,226.299 1739.488,717.987 1739.488,717.987 C1733.723,727.170 1725.944,734.512 1725.944,734.512 Z" class="cls-1"/>
      <path d="M1706.944,721.512 L1464.669,605.834 C1464.669,605.834 1428.273,580.116 1375.885,610.341 C1308.196,638.531 1120.067,721.512 1120.067,721.512 L1103.514,709.494 L1226.909,164.152 C1226.909,164.152 1259.439,140.958 1330.741,147.627 C1371.440,93.257 1402.890,81.266 1433.068,72.511 C1456.106,80.032 1508.185,132.299 1517.338,164.152 C1565.253,155.313 1604.662,157.070 1621.170,185.184 C1637.677,213.299 1720.488,704.987 1720.488,704.987 C1714.723,714.170 1706.944,721.512 1706.944,721.512 Z" class="cls-1"/>
      <path d="M1675.444,649.012 L1433.169,533.334 C1433.169,533.334 1396.773,507.616 1344.385,537.841 C1276.696,566.031 1088.567,649.012 1088.567,649.012 L1072.014,636.994 L1195.409,91.652 C1195.409,91.652 1227.939,68.458 1299.241,75.127 C1339.940,20.757 1371.390,8.766 1401.568,0.011 C1424.606,7.532 1476.685,59.799 1485.838,91.652 C1533.753,82.813 1573.162,84.570 1589.670,112.684 C1606.177,140.799 1688.988,632.487 1688.988,632.487 C1683.223,641.670 1675.444,649.012 1675.444,649.012 Z" class="cls-2"/>
      <path d="M1689.846,681.012 L1447.498,565.334 C1447.498,565.334 1411.090,539.616 1358.687,569.841 C1290.977,598.031 1102.791,681.012 1102.791,681.012 L1086.232,668.994 L1209.665,123.652 C1209.665,123.652 1242.205,100.458 1313.528,107.127 C1354.240,52.757 1385.699,40.766 1415.887,32.011 C1438.932,39.532 1491.027,91.799 1500.182,123.652 C1548.112,114.813 1587.533,116.570 1604.046,144.684 C1620.558,172.799 1703.394,664.487 1703.394,664.487 C1697.628,673.670 1689.846,681.012 1689.846,681.012 Z" class="cls-2"/>
      <path d="M1689.846,681.012 L1447.498,565.334 C1447.498,565.334 1411.090,539.616 1358.687,569.841 C1290.977,598.031 1102.791,681.012 1102.791,681.012 L1086.232,668.994 L1209.665,123.652 C1209.665,123.652 1242.205,100.458 1313.528,107.127 C1354.240,52.757 1385.699,40.766 1415.887,32.011 C1438.932,39.532 1491.027,91.799 1500.182,123.652 C1548.112,114.813 1587.533,116.570 1604.046,144.684 C1620.558,172.799 1703.394,664.487 1703.394,664.487 C1697.628,673.670 1689.846,681.012 1689.846,681.012 ZM1263.854,182.242 C1257.732,176.139 1259.346,165.678 1260.844,129.661 C1242.955,130.268 1230.775,148.384 1220.202,185.247 C1201.465,255.681 1126.187,611.575 1137.412,632.938 C1171.084,615.644 1400.834,491.720 1400.834,491.720 C1400.834,491.720 1400.783,208.454 1403.845,68.066 C1383.043,87.444 1280.180,182.242 1263.854,182.242 ZM1532.610,146.119 C1527.203,146.119 1522.820,150.493 1522.820,155.889 C1522.820,161.284 1527.203,165.658 1532.610,165.658 C1538.017,165.658 1542.399,161.284 1542.399,155.889 C1542.399,150.493 1538.017,146.119 1532.610,146.119 ZM1566.414,345.995 L1552.866,418.107 L1516.740,428.623 L1573.940,445.148 L1566.414,345.995 ZM1260.844,320.456 C1250.098,366.382 1220.202,455.665 1220.202,455.665 C1212.039,380.384 1233.836,287.754 1241.275,282.898 C1248.715,278.042 1340.976,227.733 1355.676,249.847 C1312.215,271.960 1291.998,279.616 1260.844,320.456 Z" class="cls-3"/>
    </g>
    <path d="M3619.565,305.634 C3622.622,310.224 3628.627,315.113 3637.579,320.288 L3699.038,355.600 C3715.755,365.256 3727.764,376.611 3735.065,389.677 C3742.362,402.742 3746.015,421.049 3746.015,444.587 L3746.015,567.120 C3746.015,619.382 3739.183,651.930 3725.529,664.758 C3711.869,677.592 3679.843,684.003 3629.455,684.003 C3580.237,684.003 3548.624,677.239 3534.617,663.699 C3520.605,650.164 3513.601,617.969 3513.601,567.120 L3513.601,437.525 L3614.973,437.525 L3614.973,580.539 C3614.973,589.488 3616.325,595.960 3619.035,599.960 C3621.740,603.966 3625.923,605.963 3631.574,605.963 C3636.751,605.963 3640.460,604.021 3642.700,600.137 C3644.936,596.253 3646.056,589.720 3646.056,580.539 L3646.056,456.240 C3646.056,445.646 3644.643,438.231 3641.817,433.993 C3638.992,429.756 3632.987,424.934 3623.804,419.515 L3559.165,381.731 C3542.918,372.318 3531.262,360.781 3524.197,347.126 C3517.133,333.475 3513.601,314.407 3513.601,289.920 L3513.601,206.230 C3513.601,155.381 3520.544,123.131 3534.441,109.475 C3548.332,95.825 3580.237,88.994 3630.161,88.994 C3679.374,88.994 3710.986,95.527 3724.999,108.592 C3739.006,121.658 3746.015,154.205 3746.015,206.230 L3746.015,294.864 L3646.056,294.864 L3646.056,191.752 C3646.056,182.808 3644.759,176.452 3642.170,172.684 C3639.577,168.921 3635.338,167.034 3629.455,167.034 C3624.273,167.034 3620.564,168.860 3618.329,172.507 C3616.088,176.160 3614.973,182.571 3614.973,191.752 L3614.973,282.857 C3614.973,293.451 3616.502,301.043 3619.565,305.634 ZM3353.949,684.003 C3304.731,684.003 3273.119,677.239 3259.112,663.699 C3245.099,650.164 3238.095,617.969 3238.095,567.120 L3238.095,437.525 L3339.467,437.525 L3339.467,580.539 C3339.467,589.488 3340.820,595.960 3343.529,599.960 C3346.234,603.966 3350.417,605.963 3356.068,605.963 C3361.245,605.963 3364.954,604.021 3367.195,600.137 C3369.430,596.253 3370.550,589.720 3370.550,580.539 L3370.550,456.240 C3370.550,445.646 3369.137,438.231 3366.312,433.993 C3363.486,429.756 3357.481,424.934 3348.298,419.515 L3283.660,381.731 C3267.412,372.318 3255.756,360.781 3248.692,347.126 C3241.627,333.475 3238.095,314.407 3238.095,289.920 L3238.095,206.230 C3238.095,155.381 3245.038,123.131 3258.935,109.475 C3272.826,95.825 3304.731,88.994 3354.655,88.994 C3403.868,88.994 3435.481,95.527 3449.493,108.592 C3463.500,121.658 3470.509,154.205 3470.509,206.230 L3470.509,294.864 L3370.550,294.864 L3370.550,191.752 C3370.550,182.808 3369.253,176.452 3366.665,172.684 C3364.071,168.921 3359.832,167.034 3353.949,167.034 C3348.767,167.034 3345.058,168.860 3342.823,172.507 C3340.582,176.160 3339.467,182.571 3339.467,191.752 L3339.467,282.857 C3339.467,293.451 3340.996,301.043 3344.059,305.634 C3347.117,310.224 3353.121,315.113 3362.073,320.288 L3423.532,355.600 C3440.249,365.256 3452.258,376.611 3459.560,389.677 C3466.856,402.742 3470.509,421.049 3470.509,444.587 L3470.509,567.120 C3470.509,619.382 3463.677,651.930 3450.023,664.758 C3436.363,677.592 3404.337,684.003 3353.949,684.003 ZM3034.292,92.525 L3194.650,92.525 L3194.650,169.152 L3134.604,169.152 L3134.604,318.876 L3194.650,318.876 L3194.650,396.209 L3134.604,396.209 L3134.604,602.432 L3194.650,602.432 L3194.650,679.766 L3034.292,679.766 L3034.292,92.525 ZM2884.883,462.243 C2884.883,452.593 2883.056,445.707 2879.408,441.585 C2875.754,437.469 2869.694,435.406 2861.217,435.406 C2860.274,435.406 2858.922,435.527 2857.155,435.759 C2855.389,435.996 2854.032,436.112 2853.093,436.112 L2853.093,679.766 L2752.781,679.766 L2752.781,92.525 L2875.699,92.525 C2919.497,92.525 2948.638,99.885 2963.119,114.595 C2977.601,129.310 2984.842,161.737 2984.842,211.880 L2984.842,288.507 C2984.842,321.469 2981.486,344.654 2974.775,358.072 C2968.064,371.491 2956.231,382.084 2939.277,389.853 C2955.757,396.209 2967.474,406.042 2974.422,419.339 C2981.365,432.642 2984.842,452.946 2984.842,480.252 L2984.842,679.766 L2884.883,679.766 L2884.883,462.243 ZM2884.883,206.230 C2884.883,188.574 2883.232,177.980 2879.938,174.449 C2876.637,170.918 2869.926,169.152 2859.804,169.152 L2853.093,169.152 L2853.093,348.538 C2854.269,348.538 2855.858,348.659 2857.862,348.891 C2859.860,349.128 2861.217,349.244 2861.924,349.244 C2870.870,349.244 2876.935,347.186 2880.114,343.065 C2883.293,338.949 2884.883,330.882 2884.883,318.876 L2884.883,206.230 ZM2671.542,679.766 L2571.230,679.766 L2571.230,170.565 L2521.780,170.565 L2521.780,92.525 L2720.992,92.525 L2720.992,170.565 L2671.542,170.565 L2671.542,679.766 ZM2391.445,462.243 C2391.445,452.593 2389.618,445.707 2385.970,441.585 C2382.316,437.469 2376.256,435.406 2367.779,435.406 C2366.835,435.406 2365.483,435.527 2363.717,435.759 C2361.951,435.996 2360.594,436.112 2359.655,436.112 L2359.655,679.766 L2259.343,679.766 L2259.343,92.525 L2382.261,92.525 C2426.059,92.525 2455.199,99.885 2469.681,114.595 C2484.163,129.310 2491.404,161.737 2491.404,211.880 L2491.404,288.507 C2491.404,321.469 2488.048,344.654 2481.337,358.072 C2474.626,371.491 2462.793,382.084 2445.839,389.853 C2462.319,396.209 2474.036,406.042 2480.984,419.339 C2487.927,432.642 2491.404,452.946 2491.404,480.252 L2491.404,679.766 L2391.445,679.766 L2391.445,462.243 ZM2391.445,206.230 C2391.445,188.574 2389.794,177.980 2386.500,174.449 C2383.199,170.918 2376.488,169.152 2366.366,169.152 L2359.655,169.152 L2359.655,348.538 C2360.831,348.538 2362.420,348.659 2364.424,348.891 C2366.422,349.128 2367.779,349.244 2368.486,349.244 C2377.432,349.244 2383.497,347.186 2386.676,343.065 C2389.855,338.949 2391.445,330.882 2391.445,318.876 L2391.445,206.230 ZM2097.218,684.003 C2046.825,684.003 2014.682,677.239 2000.791,663.699 C1986.895,650.164 1979.952,617.616 1979.952,566.061 L1979.952,206.230 C1979.952,153.968 1986.839,121.365 2000.615,108.415 C2014.390,95.471 2046.119,88.994 2095.806,88.994 C2146.431,88.994 2178.512,95.703 2192.056,109.122 C2205.594,122.540 2212.366,154.912 2212.366,206.230 L2212.366,566.061 C2212.366,617.854 2205.417,650.457 2191.526,663.875 C2177.629,677.294 2146.194,684.003 2097.218,684.003 ZM2111.700,192.458 C2111.700,183.045 2110.403,176.452 2107.815,172.684 C2105.221,168.921 2100.982,167.034 2095.099,167.034 C2089.680,167.034 2085.794,168.976 2083.443,172.860 C2081.086,176.744 2079.911,183.277 2079.911,192.458 L2079.911,580.539 C2079.911,589.488 2081.203,595.844 2083.796,599.607 C2086.384,603.376 2090.623,605.257 2096.512,605.257 C2102.163,605.257 2106.104,603.492 2108.345,599.960 C2110.580,596.429 2111.700,589.957 2111.700,580.539 L2111.700,192.458 ZM1879.286,679.766 L1778.974,679.766 L1778.974,92.525 L1939.332,92.525 L1939.332,169.152 L1879.286,169.152 L1879.286,318.876 L1939.332,318.876 L1939.332,396.209 L1879.286,396.209 L1879.286,679.766 ZM890.998,378.906 L886.406,378.906 L888.525,679.766 L801.282,679.766 L801.282,92.525 L890.998,92.525 L945.746,385.263 L950.337,385.263 L948.571,92.525 L1035.462,92.525 L1035.462,679.766 L946.452,679.766 L890.998,378.906 ZM592.886,92.525 L753.245,92.525 L753.245,169.152 L693.199,169.152 L693.199,318.876 L753.245,318.876 L753.245,396.209 L693.199,396.209 L693.199,602.432 L753.245,602.432 L753.245,679.766 L592.886,679.766 L592.886,92.525 ZM441.005,472.130 L417.693,472.130 L417.693,679.766 L317.380,679.766 L317.380,92.525 L440.298,92.525 C485.979,92.525 515.588,99.356 529.131,113.006 C542.669,126.662 549.441,159.618 549.441,211.880 L549.441,352.069 C549.441,405.037 542.609,438.292 528.955,451.826 C515.295,465.366 485.979,472.130 441.005,472.130 ZM449.482,206.230 C449.482,188.574 447.948,177.980 444.890,174.449 C441.827,170.918 435.232,169.152 425.110,169.152 L417.693,169.152 L417.693,394.797 L426.523,394.797 C435.938,394.797 442.120,392.976 445.067,389.323 C448.008,385.676 449.482,375.728 449.482,359.485 L449.482,206.230 ZM155.256,684.003 C104.862,684.003 72.720,677.239 58.829,663.699 C44.932,650.164 37.989,617.616 37.989,566.061 L37.989,206.230 C37.989,153.968 44.877,121.365 58.652,108.415 C72.427,95.471 104.156,88.994 153.843,88.994 C204.468,88.994 236.550,95.703 250.093,109.122 C263.631,122.540 270.403,154.912 270.403,206.230 L270.403,566.061 C270.403,617.854 263.455,650.457 249.564,663.875 C235.667,677.294 204.231,684.003 155.256,684.003 ZM169.737,192.458 C169.737,183.045 168.441,176.452 165.852,172.684 C163.258,168.921 159.020,167.034 153.136,167.034 C147.717,167.034 143.832,168.976 141.480,172.860 C139.124,176.744 137.948,183.277 137.948,192.458 L137.948,580.539 C137.948,589.488 139.240,595.844 141.834,599.607 C144.422,603.376 148.661,605.257 154.549,605.257 C160.201,605.257 164.141,603.492 166.382,599.960 C168.617,596.429 169.737,589.957 169.737,580.539 L169.737,192.458 Z" class="cls-2"/>
    <path d="M3581.565,245.634 C3584.622,250.224 3590.627,255.113 3599.579,260.288 L3661.038,295.600 C3677.755,305.256 3689.764,316.611 3697.065,329.677 C3704.362,342.742 3708.015,361.049 3708.015,384.587 L3708.015,507.120 C3708.015,559.382 3701.183,591.930 3687.529,604.758 C3673.869,617.592 3641.843,624.003 3591.455,624.003 C3542.237,624.003 3510.624,617.239 3496.617,603.699 C3482.605,590.164 3475.601,557.969 3475.601,507.120 L3475.601,377.525 L3576.973,377.525 L3576.973,520.539 C3576.973,529.488 3578.325,535.960 3581.035,539.960 C3583.740,543.966 3587.923,545.963 3593.574,545.963 C3598.751,545.963 3602.460,544.021 3604.700,540.137 C3606.936,536.253 3608.056,529.720 3608.056,520.539 L3608.056,396.240 C3608.056,385.646 3606.643,378.231 3603.817,373.993 C3600.992,369.756 3594.987,364.934 3585.804,359.515 L3521.165,321.731 C3504.918,312.318 3493.262,300.781 3486.197,287.126 C3479.133,273.475 3475.601,254.407 3475.601,229.920 L3475.601,146.230 C3475.601,95.381 3482.544,63.131 3496.441,49.475 C3510.332,35.825 3542.237,28.994 3592.161,28.994 C3641.374,28.994 3672.986,35.527 3686.999,48.592 C3701.006,61.658 3708.015,94.205 3708.015,146.230 L3708.015,234.864 L3608.056,234.864 L3608.056,131.752 C3608.056,122.808 3606.759,116.452 3604.170,112.684 C3601.577,108.921 3597.338,107.034 3591.455,107.034 C3586.273,107.034 3582.564,108.860 3580.329,112.507 C3578.088,116.160 3576.973,122.571 3576.973,131.752 L3576.973,222.857 C3576.973,233.451 3578.502,241.043 3581.565,245.634 ZM3315.949,624.003 C3266.731,624.003 3235.119,617.239 3221.112,603.699 C3207.099,590.164 3200.095,557.969 3200.095,507.120 L3200.095,377.525 L3301.467,377.525 L3301.467,520.539 C3301.467,529.488 3302.820,535.960 3305.529,539.960 C3308.234,543.966 3312.417,545.963 3318.068,545.963 C3323.245,545.963 3326.954,544.021 3329.195,540.137 C3331.430,536.253 3332.550,529.720 3332.550,520.539 L3332.550,396.240 C3332.550,385.646 3331.137,378.231 3328.312,373.993 C3325.486,369.756 3319.481,364.934 3310.298,359.515 L3245.660,321.731 C3229.412,312.318 3217.756,300.781 3210.692,287.126 C3203.627,273.475 3200.095,254.407 3200.095,229.920 L3200.095,146.230 C3200.095,95.381 3207.038,63.131 3220.935,49.475 C3234.826,35.825 3266.731,28.994 3316.655,28.994 C3365.868,28.994 3397.481,35.527 3411.493,48.592 C3425.500,61.658 3432.509,94.205 3432.509,146.230 L3432.509,234.864 L3332.550,234.864 L3332.550,131.752 C3332.550,122.808 3331.253,116.452 3328.665,112.684 C3326.071,108.921 3321.832,107.034 3315.949,107.034 C3310.767,107.034 3307.058,108.860 3304.823,112.507 C3302.582,116.160 3301.467,122.571 3301.467,131.752 L3301.467,222.857 C3301.467,233.451 3302.996,241.043 3306.059,245.634 C3309.117,250.224 3315.121,255.113 3324.073,260.288 L3385.532,295.600 C3402.249,305.256 3414.258,316.611 3421.560,329.677 C3428.856,342.742 3432.509,361.049 3432.509,384.587 L3432.509,507.120 C3432.509,559.382 3425.677,591.930 3412.023,604.758 C3398.363,617.592 3366.337,624.003 3315.949,624.003 ZM2996.292,32.525 L3156.650,32.525 L3156.650,109.152 L3096.604,109.152 L3096.604,258.876 L3156.650,258.876 L3156.650,336.209 L3096.604,336.209 L3096.604,542.432 L3156.650,542.432 L3156.650,619.766 L2996.292,619.766 L2996.292,32.525 ZM2846.883,402.243 C2846.883,392.593 2845.056,385.707 2841.408,381.585 C2837.754,377.469 2831.694,375.406 2823.217,375.406 C2822.274,375.406 2820.922,375.527 2819.155,375.759 C2817.389,375.996 2816.032,376.112 2815.093,376.112 L2815.093,619.766 L2714.781,619.766 L2714.781,32.525 L2837.699,32.525 C2881.497,32.525 2910.638,39.885 2925.119,54.595 C2939.601,69.310 2946.842,101.737 2946.842,151.880 L2946.842,228.507 C2946.842,261.469 2943.486,284.654 2936.775,298.072 C2930.064,311.491 2918.231,322.084 2901.277,329.853 C2917.757,336.209 2929.474,346.042 2936.422,359.339 C2943.365,372.642 2946.842,392.946 2946.842,420.252 L2946.842,619.766 L2846.883,619.766 L2846.883,402.243 ZM2846.883,146.230 C2846.883,128.574 2845.232,117.980 2841.938,114.449 C2838.637,110.918 2831.926,109.152 2821.804,109.152 L2815.093,109.152 L2815.093,288.538 C2816.269,288.538 2817.858,288.659 2819.862,288.891 C2821.860,289.128 2823.217,289.244 2823.924,289.244 C2832.870,289.244 2838.935,287.186 2842.114,283.065 C2845.293,278.949 2846.883,270.882 2846.883,258.876 L2846.883,146.230 ZM2633.542,619.766 L2533.230,619.766 L2533.230,110.565 L2483.780,110.565 L2483.780,32.525 L2682.992,32.525 L2682.992,110.565 L2633.542,110.565 L2633.542,619.766 ZM2353.445,402.243 C2353.445,392.593 2351.618,385.707 2347.970,381.585 C2344.316,377.469 2338.256,375.406 2329.779,375.406 C2328.835,375.406 2327.483,375.527 2325.717,375.759 C2323.951,375.996 2322.594,376.112 2321.655,376.112 L2321.655,619.766 L2221.343,619.766 L2221.343,32.525 L2344.261,32.525 C2388.059,32.525 2417.199,39.885 2431.681,54.595 C2446.163,69.310 2453.404,101.737 2453.404,151.880 L2453.404,228.507 C2453.404,261.469 2450.048,284.654 2443.337,298.072 C2436.626,311.491 2424.793,322.084 2407.839,329.853 C2424.319,336.209 2436.036,346.042 2442.984,359.339 C2449.927,372.642 2453.404,392.946 2453.404,420.252 L2453.404,619.766 L2353.445,619.766 L2353.445,402.243 ZM2353.445,146.230 C2353.445,128.574 2351.794,117.980 2348.500,114.449 C2345.199,110.918 2338.488,109.152 2328.366,109.152 L2321.655,109.152 L2321.655,288.538 C2322.831,288.538 2324.420,288.659 2326.424,288.891 C2328.422,289.128 2329.779,289.244 2330.486,289.244 C2339.432,289.244 2345.497,287.186 2348.676,283.065 C2351.855,278.949 2353.445,270.882 2353.445,258.876 L2353.445,146.230 ZM2059.218,624.003 C2008.825,624.003 1976.682,617.239 1962.791,603.699 C1948.895,590.164 1941.952,557.616 1941.952,506.061 L1941.952,146.230 C1941.952,93.968 1948.839,61.365 1962.615,48.415 C1976.390,35.471 2008.119,28.994 2057.806,28.994 C2108.431,28.994 2140.512,35.703 2154.056,49.122 C2167.594,62.540 2174.366,94.912 2174.366,146.230 L2174.366,506.061 C2174.366,557.854 2167.417,590.457 2153.526,603.875 C2139.629,617.294 2108.194,624.003 2059.218,624.003 ZM2073.700,132.458 C2073.700,123.045 2072.403,116.452 2069.815,112.684 C2067.221,108.921 2062.982,107.034 2057.099,107.034 C2051.680,107.034 2047.794,108.976 2045.443,112.860 C2043.086,116.744 2041.911,123.277 2041.911,132.458 L2041.911,520.539 C2041.911,529.488 2043.203,535.844 2045.796,539.607 C2048.384,543.376 2052.623,545.257 2058.512,545.257 C2064.163,545.257 2068.104,543.492 2070.345,539.960 C2072.580,536.429 2073.700,529.957 2073.700,520.539 L2073.700,132.458 ZM1841.286,619.766 L1740.974,619.766 L1740.974,32.525 L1901.332,32.525 L1901.332,109.152 L1841.286,109.152 L1841.286,258.876 L1901.332,258.876 L1901.332,336.209 L1841.286,336.209 L1841.286,619.766 ZM852.998,318.906 L848.406,318.906 L850.525,619.766 L763.282,619.766 L763.282,32.525 L852.998,32.525 L907.746,325.263 L912.337,325.263 L910.571,32.525 L997.462,32.525 L997.462,619.766 L908.452,619.766 L852.998,318.906 ZM554.886,32.525 L715.245,32.525 L715.245,109.152 L655.199,109.152 L655.199,258.876 L715.245,258.876 L715.245,336.209 L655.199,336.209 L655.199,542.432 L715.245,542.432 L715.245,619.766 L554.886,619.766 L554.886,32.525 ZM403.005,412.130 L379.693,412.130 L379.693,619.766 L279.380,619.766 L279.380,32.525 L402.298,32.525 C447.979,32.525 477.588,39.356 491.131,53.006 C504.669,66.662 511.441,99.618 511.441,151.880 L511.441,292.069 C511.441,345.037 504.609,378.292 490.955,391.826 C477.295,405.366 447.979,412.130 403.005,412.130 ZM411.482,146.230 C411.482,128.574 409.948,117.980 406.890,114.449 C403.827,110.918 397.232,109.152 387.110,109.152 L379.693,109.152 L379.693,334.797 L388.523,334.797 C397.938,334.797 404.120,332.976 407.067,329.323 C410.008,325.676 411.482,315.728 411.482,299.485 L411.482,146.230 ZM117.256,624.003 C66.862,624.003 34.720,617.239 20.829,603.699 C6.932,590.164 -0.011,557.616 -0.011,506.061 L-0.011,146.230 C-0.011,93.968 6.877,61.365 20.652,48.415 C34.427,35.471 66.156,28.994 115.843,28.994 C166.468,28.994 198.550,35.703 212.093,49.122 C225.631,62.540 232.403,94.912 232.403,146.230 L232.403,506.061 C232.403,557.854 225.455,590.457 211.564,603.875 C197.667,617.294 166.231,624.003 117.256,624.003 ZM131.737,132.458 C131.737,123.045 130.441,116.452 127.852,112.684 C125.258,108.921 121.020,107.034 115.136,107.034 C109.717,107.034 105.832,108.976 103.480,112.860 C101.124,116.744 99.948,123.277 99.948,132.458 L99.948,520.539 C99.948,529.488 101.240,535.844 103.834,539.607 C106.422,543.376 110.661,545.257 116.549,545.257 C122.201,545.257 126.141,543.492 128.382,539.960 C130.617,536.429 131.737,529.957 131.737,520.539 L131.737,132.458 Z" class="cls-2"/>
    <path d="M3597.664,267.623 C3600.721,272.215 3606.726,277.107 3615.677,282.285 L3677.134,317.615 C3693.850,327.276 3705.858,338.637 3713.160,351.709 C3720.456,364.782 3724.109,383.099 3724.109,406.649 L3724.109,529.246 C3724.109,581.536 3717.277,614.100 3703.623,626.935 C3689.965,639.776 3657.939,646.191 3607.554,646.191 C3558.338,646.191 3526.727,639.423 3512.720,625.876 C3498.708,612.334 3491.705,580.122 3491.705,529.246 L3491.705,399.583 L3593.073,399.583 L3593.073,542.672 C3593.073,551.626 3594.425,558.101 3597.134,562.104 C3599.839,566.112 3604.022,568.110 3609.673,568.110 C3614.849,568.110 3618.558,566.167 3620.799,562.280 C3623.034,558.394 3624.154,551.858 3624.154,542.672 L3624.154,418.308 C3624.154,407.709 3622.741,400.289 3619.916,396.050 C3617.090,391.810 3611.086,386.985 3601.903,381.564 L3537.267,343.760 C3521.020,334.342 3509.364,322.799 3502.301,309.136 C3495.237,295.479 3491.705,276.400 3491.705,251.900 L3491.705,168.167 C3491.705,117.291 3498.647,85.024 3512.543,71.361 C3526.434,57.703 3558.338,50.869 3608.260,50.869 C3657.470,50.869 3689.082,57.405 3703.094,70.477 C3717.100,83.550 3724.109,116.115 3724.109,168.167 L3724.109,256.847 L3624.154,256.847 L3624.154,153.681 C3624.154,144.733 3622.857,138.373 3620.269,134.603 C3617.675,130.838 3613.437,128.950 3607.554,128.950 C3602.372,128.950 3598.663,130.777 3596.428,134.426 C3594.187,138.080 3593.073,144.495 3593.073,153.681 L3593.073,244.834 C3593.073,255.433 3594.601,263.030 3597.664,267.623 ZM3332.060,646.191 C3282.844,646.191 3251.232,639.423 3237.226,625.876 C3223.214,612.334 3216.210,580.122 3216.210,529.246 L3216.210,399.583 L3317.578,399.583 L3317.578,542.672 C3317.578,551.626 3318.930,558.101 3321.640,562.104 C3324.344,566.112 3328.528,568.110 3334.178,568.110 C3339.355,568.110 3343.064,566.167 3345.304,562.280 C3347.540,558.394 3348.660,551.858 3348.660,542.672 L3348.660,418.308 C3348.660,407.709 3347.247,400.289 3344.421,396.050 C3341.596,391.810 3335.592,386.985 3326.408,381.564 L3261.773,343.760 C3245.526,334.342 3233.870,322.799 3226.806,309.136 C3219.742,295.479 3216.210,276.400 3216.210,251.900 L3216.210,168.167 C3216.210,117.291 3223.153,85.024 3237.049,71.361 C3250.940,57.703 3282.844,50.869 3332.766,50.869 C3381.976,50.869 3413.587,57.405 3427.599,70.477 C3441.606,83.550 3448.615,116.115 3448.615,168.167 L3448.615,256.847 L3348.660,256.847 L3348.660,153.681 C3348.660,144.733 3347.363,138.373 3344.774,134.603 C3342.181,130.838 3337.942,128.950 3332.060,128.950 C3326.877,128.950 3323.169,130.777 3320.934,134.426 C3318.693,138.080 3317.578,144.495 3317.578,153.681 L3317.578,244.834 C3317.578,255.433 3319.107,263.030 3322.170,267.623 C3325.227,272.215 3331.231,277.107 3340.183,282.285 L3401.639,317.615 C3418.355,327.276 3430.364,338.637 3437.666,351.709 C3444.961,364.782 3448.615,383.099 3448.615,406.649 L3448.615,529.246 C3448.615,581.536 3441.782,614.100 3428.129,626.935 C3414.470,639.776 3382.445,646.191 3332.060,646.191 ZM3012.416,54.402 L3172.767,54.402 L3172.767,131.069 L3112.724,131.069 L3112.724,280.872 L3172.767,280.872 L3172.767,358.246 L3112.724,358.246 L3112.724,564.577 L3172.767,564.577 L3172.767,641.951 L3012.416,641.951 L3012.416,54.402 ZM2863.013,424.314 C2863.013,414.659 2861.186,407.769 2857.538,403.646 C2853.885,399.527 2847.825,397.463 2839.348,397.463 C2838.405,397.463 2837.053,397.584 2835.287,397.816 C2833.521,398.053 2832.163,398.169 2831.225,398.169 L2831.225,641.951 L2730.917,641.951 L2730.917,54.402 L2853.830,54.402 C2897.626,54.402 2926.765,61.766 2941.246,76.484 C2955.727,91.207 2962.968,123.650 2962.968,173.820 L2962.968,250.487 C2962.968,283.466 2959.612,306.663 2952.901,320.089 C2946.191,333.514 2934.358,344.113 2917.405,351.886 C2933.884,358.246 2945.600,368.083 2952.548,381.387 C2959.491,394.697 2962.968,415.012 2962.968,442.333 L2962.968,641.951 L2863.013,641.951 L2863.013,424.314 ZM2863.013,168.167 C2863.013,150.501 2861.363,139.902 2858.068,136.369 C2854.768,132.836 2848.057,131.069 2837.936,131.069 L2831.225,131.069 L2831.225,310.549 C2832.400,310.549 2833.990,310.671 2835.993,310.903 C2837.991,311.140 2839.348,311.256 2840.055,311.256 C2849.001,311.256 2855.066,309.197 2858.244,305.073 C2861.423,300.955 2863.013,292.884 2863.013,280.872 L2863.013,168.167 ZM2649.681,641.951 L2549.373,641.951 L2549.373,132.483 L2499.925,132.483 L2499.925,54.402 L2699.129,54.402 L2699.129,132.483 L2649.681,132.483 L2649.681,641.951 ZM2369.595,424.314 C2369.595,414.659 2367.769,407.769 2364.121,403.646 C2360.468,399.527 2354.408,397.463 2345.931,397.463 C2344.987,397.463 2343.635,397.584 2341.869,397.816 C2340.103,398.053 2338.746,398.169 2337.808,398.169 L2337.808,641.951 L2237.500,641.951 L2237.500,54.402 L2360.412,54.402 C2404.209,54.402 2433.347,61.766 2447.829,76.484 C2462.310,91.207 2469.550,123.650 2469.550,173.820 L2469.550,250.487 C2469.550,283.466 2466.195,306.663 2459.484,320.089 C2452.773,333.514 2440.941,344.113 2423.988,351.886 C2440.467,358.246 2452.183,368.083 2459.131,381.387 C2466.073,394.697 2469.550,415.012 2469.550,442.333 L2469.550,641.951 L2369.595,641.951 L2369.595,424.314 ZM2369.595,168.167 C2369.595,150.501 2367.945,139.902 2364.651,136.369 C2361.350,132.836 2354.640,131.069 2344.518,131.069 L2337.808,131.069 L2337.808,310.549 C2338.983,310.549 2340.573,310.671 2342.576,310.903 C2344.573,311.140 2345.931,311.256 2346.637,311.256 C2355.583,311.256 2361.648,309.197 2364.827,305.073 C2368.006,300.955 2369.595,292.884 2369.595,280.872 L2369.595,168.167 ZM2075.382,646.191 C2024.990,646.191 1992.849,639.423 1978.958,625.876 C1965.062,612.334 1958.120,579.769 1958.120,528.186 L1958.120,168.167 C1958.120,115.877 1965.007,83.257 1978.782,70.301 C1992.557,57.350 2024.284,50.869 2073.969,50.869 C2124.592,50.869 2156.672,57.582 2170.215,71.007 C2183.752,84.433 2190.524,116.821 2190.524,168.167 L2190.524,528.186 C2190.524,580.006 2183.576,612.627 2169.685,626.052 C2155.789,639.478 2124.355,646.191 2075.382,646.191 ZM2089.863,154.388 C2089.863,144.970 2088.566,138.373 2085.978,134.603 C2083.384,130.838 2079.145,128.950 2073.262,128.950 C2067.843,128.950 2063.958,130.893 2061.607,134.779 C2059.250,138.666 2058.075,145.202 2058.075,154.388 L2058.075,542.672 C2058.075,551.626 2059.366,557.985 2061.960,561.750 C2064.548,565.521 2068.787,567.403 2074.675,567.403 C2080.326,567.403 2084.267,565.637 2086.507,562.104 C2088.742,558.571 2089.863,552.095 2089.863,542.672 L2089.863,154.388 ZM1857.459,641.951 L1757.150,641.951 L1757.150,54.402 L1917.502,54.402 L1917.502,131.069 L1857.459,131.069 L1857.459,280.872 L1917.502,280.872 L1917.502,358.246 L1857.459,358.246 L1857.459,641.951 ZM869.212,340.934 L864.620,340.934 L866.739,641.951 L779.500,641.951 L779.500,54.402 L869.212,54.402 L923.957,347.293 L928.549,347.293 L926.783,54.402 L1013.670,54.402 L1013.670,641.951 L924.664,641.951 L869.212,340.934 ZM571.113,54.402 L731.465,54.402 L731.465,131.069 L671.421,131.069 L671.421,280.872 L731.465,280.872 L731.465,358.246 L671.421,358.246 L671.421,564.577 L731.465,564.577 L731.465,641.951 L571.113,641.951 L571.113,54.402 ZM419.238,434.207 L395.927,434.207 L395.927,641.951 L295.619,641.951 L295.619,54.402 L418.531,54.402 C464.210,54.402 493.818,61.236 507.361,74.894 C520.898,88.557 527.669,121.530 527.669,173.820 L527.669,314.082 C527.669,367.078 520.837,400.350 507.184,413.891 C493.525,427.439 464.210,434.207 419.238,434.207 ZM427.715,168.167 C427.715,150.501 426.180,139.902 423.123,136.369 C420.060,132.836 413.465,131.069 403.344,131.069 L395.927,131.069 L395.927,356.833 L404.757,356.833 C414.172,356.833 420.353,355.011 423.300,351.356 C426.241,347.707 427.715,337.754 427.715,321.502 L427.715,168.167 ZM133.501,646.191 C83.109,646.191 50.969,639.423 37.078,625.876 C23.182,612.334 16.239,579.769 16.239,528.186 L16.239,168.167 C16.239,115.877 23.126,83.257 36.901,70.301 C50.676,57.350 82.403,50.869 132.088,50.869 C182.711,50.869 214.792,57.582 228.334,71.007 C241.872,84.433 248.643,116.821 248.643,168.167 L248.643,528.186 C248.643,580.006 241.695,612.627 227.805,626.052 C213.908,639.478 182.474,646.191 133.501,646.191 ZM147.982,154.388 C147.982,144.970 146.685,138.373 144.097,134.603 C141.503,130.838 137.265,128.950 131.382,128.950 C125.962,128.950 122.077,130.893 119.726,134.779 C117.370,138.666 116.194,145.202 116.194,154.388 L116.194,542.672 C116.194,551.626 117.486,557.985 120.079,561.750 C122.667,565.521 126.906,567.403 132.794,567.403 C138.446,567.403 142.386,565.637 144.626,562.104 C146.862,558.571 147.982,552.095 147.982,542.672 L147.982,154.388 Z" class="cls-3"/>
  </g>
</svg>
